<?xml version="1.0" encoding="UTF-8" standalone="no"?>
<svg width="16px" height="16px" viewBox="0 0 16 16" version="1.1" xmlns="http://www.w3.org/2000/svg" xmlns:xlink="http://www.w3.org/1999/xlink" xmlns:sketch="http://www.bohemiancoding.com/sketch/ns">
    <!-- Generator: sketchtool 3.4 (375) - http://www.bohemiancoding.com/sketch -->
    <title>Billing</title>
    <desc>Created with sketchtool.</desc>
    <defs></defs>
    <g id="Style-Guide" stroke="none" stroke-width="1" fill="none" fill-rule="evenodd" sketch:type="MSPage">
        <g id="EI-Style-Guide" sketch:type="MSArtboardGroup" transform="translate(-789.000000, -664.000000)" fill="#3C3C3C">
            <g id="Icons" sketch:type="MSLayerGroup" transform="translate(560.000000, 660.000000)">
                <g id="Billing" transform="translate(229.000000, 4.000000)" sketch:type="MSShapeGroup">
                    <path d="M6,12 L14,12 L14,10.999 L6,10.999 L6,12 Z" id="Fill-1"></path>
                    <path d="M6,10 L9,10 L9,9 L6,9 L6,10 Z" id="Fill-2"></path>
                    <path d="M6,6 L9,6 L9,5 L6,5 L6,6 Z" id="Fill-3"></path>
                    <path d="M6,8 L10,8 L10,7 L6,7 L6,8 Z" id="Fill-4"></path>
                    <path d="M12,10 L14.001,10 L14.001,9 L12,9 L12,10 Z" id="Fill-5"></path>
                    <path d="M12,8 L14.001,8 L14.001,7 L12,7 L12,8 Z" id="Fill-6"></path>
                    <path d="M6,4 L10,4 L10,3 L6,3 L6,4 Z" id="Fill-7"></path>
                    <path d="M12,4 L14.001,4 L14.001,3 L12,3 L12,4 Z" id="Fill-8"></path>
                    <path d="M12,6 L14.001,6 L14.001,5 L12,5 L12,6 Z" id="Fill-9"></path>
                    <path d="M15,14.5856 L14.707,14.2926 L14,13.5856 L13.293,14.2926 L13,14.5856 L12.707,14.2926 L12,13.5856 L11.293,14.2926 L11,14.5856 L10.707,14.2926 L10,13.5856 L9.293,14.2926 L9,14.5856 L8.707,14.2926 L8,13.5856 L7.293,14.2926 L7,14.5856 L6.708,14.2926 L6.001,13.5856 L5.293,14.2926 L5,14.5856 L5,14.5856 L5,4.9996 L5,3.9996 L5,2.4996 C5,1.9346 4.805,1.4186 4.489,0.9996 L5,0.9996 L5.5,0.9996 L13.645,0.9996 C14.392,0.9996 15,1.6076 15,2.3556 L15,14.5856 Z M1,3.9996 L1,2.4996 C1,1.6726 1.673,0.9996 2.5,0.9996 C3.327,0.9996 4,1.6726 4,2.4996 L4,3.9996 L1,3.9996 Z M13.645,-0.0004 L5.5,-0.0004 L4,-0.0004 L2.5,-0.0004 C1.119,-0.0004 0,1.1196 0,2.4996 L0,4.9996 L4,4.9996 L4,14.9996 L5,15.9996 L6,14.9996 L7,15.9996 L8,14.9996 L9,15.9996 L10,14.9996 L11,15.9996 L12,14.9996 L13,15.9996 L14,14.9996 L15,15.9996 L16,14.9996 L16,2.3556 C16,1.0546 14.946,-0.0004 13.645,-0.0004 L13.645,-0.0004 Z" id="Fill-10"></path>
                </g>
            </g>
        </g>
    </g>
</svg>