<?xml version="1.0" encoding="UTF-8" standalone="no"?>
<svg width="16px" height="16px" viewBox="0 0 16 16" version="1.1" xmlns="http://www.w3.org/2000/svg" xmlns:xlink="http://www.w3.org/1999/xlink" xmlns:sketch="http://www.bohemiancoding.com/sketch/ns">
    <!-- Generator: sketchtool 3.4 (375) - http://www.bohemiancoding.com/sketch -->
    <title>Cog</title>
    <desc>Created with sketchtool.</desc>
    <defs></defs>
    <g id="Style-Guide" stroke="none" stroke-width="1" fill="none" fill-rule="evenodd" sketch:type="MSPage">
        <g id="EI-Style-Guide" sketch:type="MSArtboardGroup" transform="translate(-835.000000, -664.000000)" fill="#3C3C3C">
            <g id="Icons" sketch:type="MSLayerGroup" transform="translate(560.000000, 660.000000)">
                <path d="M286.765,12.003 C286.765,9.932 285.091,8.25 283.042,8.231 C280.934,8.213 279.242,9.925 279.232,11.98 C279.222,14.072 280.936,15.77 282.988,15.766 C285.082,15.762 286.765,14.089 286.765,12.003 M283.031,20 L282.969,20 C282.91,19.985 282.851,19.967 282.791,19.956 C282.674,19.934 282.557,19.914 282.439,19.896 C282.306,19.876 282.248,19.797 282.23,19.667 C282.172,19.24 282.107,18.814 282.045,18.388 C281.922,17.542 281.194,16.794 280.215,16.825 C279.748,16.84 279.363,17.029 279.004,17.302 C278.706,17.528 278.404,17.751 278.106,17.976 C278.011,18.048 277.928,18.048 277.822,17.985 C277.515,17.805 277.272,17.564 277.067,17.274 C276.95,17.109 276.941,16.969 277.072,16.814 C277.139,16.735 277.192,16.644 277.253,16.56 C277.487,16.241 277.744,15.937 277.949,15.602 C278.236,15.134 278.256,14.613 278.065,14.113 C277.813,13.456 277.31,13.07 276.612,12.956 C276.233,12.895 275.851,12.854 275.471,12.798 C275.144,12.75 275.14,12.743 275.074,12.425 C275.047,12.294 275.025,12.162 275,12.031 L275,11.969 C275.033,11.797 275.071,11.626 275.099,11.453 C275.121,11.315 275.196,11.248 275.333,11.229 C275.76,11.171 276.186,11.107 276.612,11.045 C277.45,10.924 278.207,10.196 278.175,9.214 C278.159,8.747 277.97,8.362 277.698,8.003 C277.475,7.709 277.256,7.411 277.03,7.119 C276.943,7.005 276.957,6.906 277.028,6.792 C277.199,6.519 277.41,6.287 277.676,6.105 C277.951,5.917 277.955,5.909 278.222,6.102 C278.556,6.342 278.874,6.603 279.21,6.84 C279.727,7.206 280.305,7.283 280.887,7.064 C281.545,6.816 281.929,6.307 282.044,5.61 C282.11,5.206 282.152,4.798 282.219,4.393 C282.262,4.132 282.285,4.124 282.545,4.077 C282.676,4.053 282.807,4.026 282.938,4 L283.063,4 C283.223,4.033 283.384,4.071 283.546,4.099 C283.683,4.122 283.751,4.194 283.77,4.332 C283.828,4.759 283.893,5.185 283.954,5.611 C284.074,6.451 284.806,7.212 285.8,7.174 C286.267,7.157 286.649,6.959 287.008,6.688 C287.298,6.468 287.592,6.253 287.88,6.03 C287.993,5.942 288.093,5.956 288.207,6.027 C288.522,6.223 288.777,6.476 288.972,6.793 C289.043,6.907 289.057,7.006 288.969,7.119 C288.744,7.411 288.531,7.714 288.3,8.002 C287.897,8.509 287.736,9.071 287.875,9.71 C288.019,10.374 288.641,10.926 289.388,11.044 C289.768,11.104 290.15,11.146 290.53,11.202 C290.857,11.25 290.861,11.256 290.926,11.575 C290.953,11.706 290.975,11.838 291,11.969 L291,12.031 C290.966,12.203 290.927,12.373 290.899,12.546 C290.877,12.685 290.804,12.752 290.666,12.771 C290.24,12.829 289.813,12.888 289.388,12.956 C288.474,13.102 287.847,13.813 287.826,14.691 C287.814,15.2 288.013,15.619 288.311,16.008 C288.536,16.301 288.754,16.6 288.977,16.893 C289.055,16.996 289.045,17.089 288.981,17.193 C288.811,17.466 288.603,17.702 288.336,17.884 C288.048,18.08 288.048,18.08 287.765,17.89 C287.704,17.849 287.644,17.808 287.586,17.764 C287.29,17.543 287.005,17.305 286.698,17.103 C286.204,16.777 285.653,16.732 285.113,16.936 C284.455,17.184 284.07,17.69 283.956,18.388 C283.893,18.777 283.854,19.17 283.793,19.56 C283.745,19.86 283.722,19.873 283.424,19.926 C283.293,19.949 283.162,19.975 283.031,20" id="Cog" sketch:type="MSShapeGroup"></path>
            </g>
        </g>
    </g>
</svg>