<?xml version="1.0" encoding="UTF-8" standalone="no"?>
<svg width="16px" height="15px" viewBox="0 0 16 15" version="1.1" xmlns="http://www.w3.org/2000/svg" xmlns:xlink="http://www.w3.org/1999/xlink" xmlns:sketch="http://www.bohemiancoding.com/sketch/ns">
    <!-- Generator: sketchtool 3.4 (375) - http://www.bohemiancoding.com/sketch -->
    <title>Content</title>
    <desc>Created with sketchtool.</desc>
    <defs></defs>
    <g id="Style-Guide" stroke="none" stroke-width="1" fill="none" fill-rule="evenodd" sketch:type="MSPage">
        <g id="EI-Style-Guide" sketch:type="MSArtboardGroup" transform="translate(-696.000000, -665.000000)" fill="#3C3C3C">
            <g id="Icons" sketch:type="MSLayerGroup" transform="translate(560.000000, 660.000000)">
                <path d="M136.75,17.75 C136.336,17.75 136,18.086 136,18.5 C136,18.914 136.336,19.25 136.75,19.25 C137.164,19.25 137.5,18.914 137.5,18.5 C137.5,18.086 137.164,17.75 136.75,17.75 M136.75,13.75 C136.336,13.75 136,14.086 136,14.5 C136,14.914 136.336,15.25 136.75,15.25 C137.164,15.25 137.5,14.914 137.5,14.5 C137.5,14.086 137.164,13.75 136.75,13.75 M136.75,9.75 C136.336,9.75 136,10.086 136,10.5 C136,10.914 136.336,11.25 136.75,11.25 C137.164,11.25 137.5,10.914 137.5,10.5 C137.5,10.086 137.164,9.75 136.75,9.75 M136.75,5.75 C136.336,5.75 136,6.086 136,6.5 C136,6.914 136.336,7.25 136.75,7.25 C137.164,7.25 137.5,6.914 137.5,6.5 C137.5,6.086 137.164,5.75 136.75,5.75 M151.5,18 L139.5,18 C139.224,18 139,18.224 139,18.5 C139,18.776 139.224,19 139.5,19 L151.5,19 C151.776,19 152,18.776 152,18.5 C152,18.224 151.776,18 151.5,18 M151.5,14 L139.5,14 C139.224,14 139,14.224 139,14.5 C139,14.776 139.224,15 139.5,15 L151.5,15 C151.776,15 152,14.776 152,14.5 C152,14.224 151.776,14 151.5,14 M151.5,10 L139.5,10 C139.224,10 139,10.224 139,10.5 C139,10.776 139.224,11 139.5,11 L151.5,11 C151.776,11 152,10.776 152,10.5 C152,10.224 151.776,10 151.5,10 M139.5,6.979 L151.5,6.979 C151.776,6.979 152,6.755 152,6.479 C152,6.203 151.776,5.979 151.5,5.979 L139.5,5.979 C139.224,5.979 139,6.203 139,6.479 C139,6.755 139.224,6.979 139.5,6.979" id="Content" sketch:type="MSShapeGroup"></path>
            </g>
        </g>
    </g>
</svg>