<?xml version="1.0" encoding="UTF-8" standalone="no"?>
<svg width="16px" height="17px" viewBox="0 0 16 17" version="1.1" xmlns="http://www.w3.org/2000/svg" xmlns:xlink="http://www.w3.org/1999/xlink" xmlns:sketch="http://www.bohemiancoding.com/sketch/ns">
    <!-- Generator: sketchtool 3.4 (375) - http://www.bohemiancoding.com/sketch -->
    <title>Dashboard</title>
    <desc>Created with sketchtool.</desc>
    <defs></defs>
    <g id="Style-Guide" stroke="none" stroke-width="1" fill="none" fill-rule="evenodd" sketch:type="MSPage">
        <g id="EI-Style-Guide" sketch:type="MSArtboardGroup" transform="translate(-560.000000, -663.000000)" fill="#3C3C3C">
            <g id="Icons" sketch:type="MSLayerGroup" transform="translate(560.000000, 660.000000)">
                <path d="M12,17 L10,17 L10,10 L12,10 L12,17 Z M15,17 L13,17 L13,13 L15,13 L15,17 Z M7,17 L9,17 L9,3.999 L7,3.999 L7,17 Z M3,17 L1,17 L1,14 L3,14 L3,17 Z M6,17 L4,17 L4,7 L6,7 L6,17 Z M0,20 L16,20 L16,19 L0,19 L0,20 Z" id="Dashboard" sketch:type="MSShapeGroup"></path>
            </g>
        </g>
    </g>
</svg>