<?xml version="1.0" encoding="UTF-8" standalone="no"?>
<svg width="17px" height="16px" viewBox="0 0 17 16" version="1.1" xmlns="http://www.w3.org/2000/svg" xmlns:xlink="http://www.w3.org/1999/xlink" xmlns:sketch="http://www.bohemiancoding.com/sketch/ns">
    <!-- Generator: sketchtool 3.4 (375) - http://www.bohemiancoding.com/sketch -->
    <title>Download</title>
    <desc>Created with sketchtool.</desc>
    <defs></defs>
    <g id="Style-Guide" stroke="none" stroke-width="1" fill="none" fill-rule="evenodd" sketch:type="MSPage">
        <g id="EI-Style-Guide" sketch:type="MSArtboardGroup" transform="translate(-742.000000, -664.000000)" fill="#3C3C3C">
            <g id="Icons" sketch:type="MSLayerGroup" transform="translate(560.000000, 660.000000)">
                <path d="M190.146,16.854 C190.147,16.855 190.149,16.855 190.15,16.857 C190.195,16.901 190.249,16.937 190.308,16.962 C190.431,17.012 190.568,17.012 190.691,16.962 C190.752,16.937 190.807,16.9 190.853,16.854 L194.389,13.318 C194.584,13.123 194.584,12.807 194.389,12.611 C194.193,12.416 193.877,12.416 193.682,12.611 L191,15.293 L191,4.5 C191,4.224 190.776,4 190.5,4 C190.223,4 190,4.224 190,4.5 L190,15.293 L187.318,12.611 C187.122,12.416 186.806,12.416 186.61,12.611 C186.415,12.807 186.415,13.123 186.61,13.318 L190.146,16.854 Z M198.5,7 L195.5,7 C195.223,7 195,7.224 195,7.5 C195,7.777 195.223,8 195.5,8 L198,8 L198,19 L183,19 L183,8 L185.5,8 C185.776,8 186,7.777 186,7.5 C186,7.224 185.776,7 185.5,7 L182.5,7 C182.223,7 182,7.224 182,7.5 L182,19.5 C182,19.777 182.223,20 182.5,20 L198.5,20 C198.776,20 199,19.777 199,19.5 L199,7.5 C199,7.224 198.776,7 198.5,7 L198.5,7 Z" id="Download" sketch:type="MSShapeGroup"></path>
            </g>
        </g>
    </g>
</svg>