<?xml version="1.0" encoding="UTF-8" standalone="no"?>
<svg width="100px" height="18px" viewBox="0 0 100 18" version="1.1" xmlns="http://www.w3.org/2000/svg" xmlns:xlink="http://www.w3.org/1999/xlink" xmlns:sketch="http://www.bohemiancoding.com/sketch/ns">
    <!-- Generator: sketchtool 3.4 (375) - http://www.bohemiancoding.com/sketch -->
    <title>Guvera Logo</title>
    <desc>Created with sketchtool.</desc>
    <defs></defs>
    <g id="Brands-Design" stroke="none" stroke-width="1" fill="none" fill-rule="evenodd" sketch:type="MSPage">
        <g id="Side-Nav-(expanded)" sketch:type="MSArtboardGroup" transform="translate(-50.000000, -977.000000)" fill="#EBEBEB">
            <g id="left-Nav-Expanded" sketch:type="MSLayerGroup">
                <path d="M90.5784593,977.842865 L85.0691237,994.35008 L82.0262219,994.35008 L76.5495165,977.869563 L76.5495165,988.537741 C76.5495165,992.164859 73.670284,994.49 70.2057784,994.49 C66.7412728,994.49 63.908655,992.164859 63.908655,988.537741 L63.908655,977.796309 L68.0050482,977.796309 L68.0050482,988.445147 C68.0050482,989.978609 68.8472199,990.862368 70.2057784,990.862368 C71.563819,990.862368 72.4526053,989.978609 72.4526053,988.445147 L72.4526053,977.796309 L76.5495165,977.796309 L76.5495165,977.869563 L76.5251733,977.796309 L80.7619285,977.796309 L83.5707211,987.049548 L86.333935,977.796309 L90.5939975,977.796309 L90.5784593,977.842865 L90.5784593,994.35008 L101.909449,994.35008 L101.909449,990.722448 L94.6758884,990.722448 L94.6758884,987.816536 L100.855957,987.816536 L100.855957,984.189419 L94.6758884,984.189419 L94.6758884,981.422398 L101.909449,981.422398 L101.909449,977.796309 L90.5784593,977.796309 L90.5784593,977.842865 Z M149.992477,983.643628 L144.447403,987.767153 L146.461675,994.35008 L140.799547,990.386537 L135.118255,994.323845 L137.163603,987.750177 L131.638211,983.600932 L138.56515,983.500621 L140.831141,977 L143.066573,983.511424 L149.992477,983.643628 Z M61.3614224,992.520832 C59.9085987,994.011597 58.28848,994.414381 56.4306266,994.414381 C54.4541648,994.414381 52.9531725,993.751304 51.7152942,992.520832 C49.9289166,990.746625 50.0003924,988.38136 50.0003924,985.850969 C50.0003924,983.320063 49.9289166,980.953769 51.7152942,979.180077 C52.9531725,977.950119 54.382689,977.287042 56.4306266,977.287042 C60.7890979,977.287042 62.6469513,980.102417 63.0524989,982.869953 L58.8608045,982.869953 C58.5272507,981.592154 57.8596251,980.977946 56.4306266,980.977946 C55.6687358,980.977946 55.0974472,981.309227 54.7877186,981.710468 C54.4075501,982.20739 54.1682615,982.775815 54.1682615,985.850969 C54.1682615,988.924579 54.4075501,989.516152 54.7877186,990.013074 C55.0974472,990.415344 55.6687358,990.723477 56.4306266,990.723477 C57.3121618,990.723477 57.9072757,990.463699 58.28848,990.061429 C58.7655035,989.587141 58.9327983,988.901945 58.9327983,988.264074 L58.9327983,988.02693 L56.4306266,988.02693 L56.4306266,984.573684 L63.0758062,984.573684 L63.0758062,986.916315 C63.0758062,989.635496 62.6469513,991.220913 61.3614224,992.520832 Z M111.218398,994.35008 L108.268725,988.187427 L106.886859,988.187427 L106.886859,994.35008 L102.789948,994.35008 L102.789948,977.796309 L109.391621,977.796309 C113.090235,977.796309 115.080682,980.399233 115.080682,983.119442 C115.080682,985.374109 113.676026,986.793885 112.365636,987.443588 L115.969986,994.35008 L111.218398,994.35008 Z M109.205162,981.446061 L106.886859,981.446061 L106.886859,984.793338 L109.205162,984.793338 C110.329093,984.793338 110.983252,983.980053 110.983252,983.119442 C110.983252,982.260375 110.329093,981.446061 109.205162,981.446061 Z M126.585699,994.35008 L125.812932,991.885019 L120.686872,991.885019 L119.866454,994.35008 L115.583084,994.35008 L121.646098,977.796309 L124.807091,977.796309 L130.869069,994.35008 L126.585699,994.35008 Z M123.331478,984.072647 L121.833075,988.490415 L124.736133,988.490415 L123.331478,984.072647 Z M129.594417,980.808705 C128.728938,980.808705 128.027128,980.112706 128.027128,979.253123 C128.027128,978.393027 128.728938,977.696514 129.594417,977.696514 C130.459378,977.696514 131.16067,978.393027 131.16067,979.253123 C131.16067,980.112706 130.459378,980.808705 129.594417,980.808705 Z M129.594417,978.04477 C128.91954,978.04477 128.399528,978.560725 128.399528,979.253123 C128.399528,979.944493 128.91954,980.460448 129.594417,980.460448 C130.269294,980.460448 130.78827,979.944493 130.78827,979.253123 C130.78827,978.560725 130.269294,978.04477 129.594417,978.04477 L129.594417,978.04477 Z M129.875659,980.07824 L129.572145,979.437283 L129.395528,979.437283 L129.395528,980.07824 L129.023128,980.07824 L129.023128,978.423377 L129.702667,978.423377 C130.040364,978.423377 130.256345,978.668237 130.256345,978.942933 C130.256345,979.171332 130.10925,979.316911 129.949206,979.381726 L130.299852,980.07824 L129.875659,980.07824 L129.875659,980.07824 Z M129.655016,978.728424 L129.395528,978.728424 L129.395528,979.157957 L129.655016,979.157957 C129.793306,979.157957 129.883946,979.05919 129.883946,978.942933 C129.883946,978.827191 129.793306,978.728424 129.655016,978.728424 L129.655016,978.728424 Z" id="Guvera-Logo" sketch:type="MSShapeGroup"></path>
            </g>
        </g>
    </g>
</svg>