<?xml version="1.0" encoding="UTF-8" standalone="no"?>
<svg width="20px" height="14px" viewBox="0 0 20 14" version="1.1" xmlns="http://www.w3.org/2000/svg" xmlns:xlink="http://www.w3.org/1999/xlink" xmlns:sketch="http://www.bohemiancoding.com/sketch/ns">
    <!-- Generator: sketchtool 3.4 (375) - http://www.bohemiancoding.com/sketch -->
    <title>Order</title>
    <desc>Created with sketchtool.</desc>
    <defs></defs>
    <g id="Style-Guide" stroke="none" stroke-width="1" fill="none" fill-rule="evenodd" sketch:type="MSPage">
        <g id="EI-Style-Guide" sketch:type="MSArtboardGroup" transform="translate(-1007.000000, -625.000000)" fill="#E6E6E6">
            <path d="M1007.9918,631 C1007.44405,631 1007,631.443865 1007,632 C1007,632.552285 1007.45531,633 1007.9918,633 L1026.0082,633 C1026.55595,633 1027,632.556135 1027,632 C1027,631.447715 1026.54469,631 1026.0082,631 L1007.9918,631 Z M1007.9918,637 C1007.44405,637 1007,637.443865 1007,638 C1007,638.552285 1007.45531,639 1007.9918,639 L1026.0082,639 C1026.55595,639 1027,638.556135 1027,638 C1027,637.447715 1026.54469,637 1026.0082,637 L1007.9918,637 Z M1007.9918,625 C1007.44405,625 1007,625.443865 1007,626 C1007,626.552285 1007.45531,627 1007.9918,627 L1026.0082,627 C1026.55595,627 1027,626.556135 1027,626 C1027,625.447715 1026.54469,625 1026.0082,625 L1007.9918,625 Z" id="Order" sketch:type="MSShapeGroup"></path>
        </g>
    </g>
</svg>