<?xml version="1.0" encoding="UTF-8" standalone="no"?>
<svg width="14px" height="16px" viewBox="0 0 14 16" version="1.1" xmlns="http://www.w3.org/2000/svg" xmlns:xlink="http://www.w3.org/1999/xlink" xmlns:sketch="http://www.bohemiancoding.com/sketch/ns">
    <!-- Generator: sketchtool 3.4 (375) - http://www.bohemiancoding.com/sketch -->
    <title>Playlist</title>
    <desc>Created with sketchtool.</desc>
    <defs></defs>
    <g id="Style-Guide" stroke="none" stroke-width="1" fill="none" fill-rule="evenodd" sketch:type="MSPage">
        <g id="EI-Style-Guide" sketch:type="MSArtboardGroup" transform="translate(-652.000000, -664.000000)" stroke="#3C3C3C">
            <g id="Icons" sketch:type="MSLayerGroup" transform="translate(560.000000, 660.000000)">
                <path d="M104.901,4.203 L97.375,5.625 L96.3,5.828 L96.3,9.338 L96.3,15.863 C95.85,15.571 95.295,15.392 94.687,15.392 C93.203,15.392 92,16.423 92,17.696 C92,18.968 93.203,20 94.687,20 C95.295,20 95.85,19.82 96.3,19.529 C96.949,19.108 97.375,18.447 97.375,17.696 L97.375,9.134 L104.901,7.712 L104.901,13.559 C104.451,13.267 103.896,13.088 103.288,13.088 C101.804,13.088 100.601,14.119 100.601,15.392 C100.601,16.664 101.804,17.696 103.288,17.696 C103.896,17.696 104.451,17.516 104.901,17.225 C105.55,16.804 105.976,16.143 105.976,15.392 L105.976,7.509 L105.976,4 L104.901,4.203 Z" id="Playlist" sketch:type="MSShapeGroup"></path>
            </g>
        </g>
    </g>
</svg>