<?xml version="1.0" encoding="UTF-8" standalone="no"?>
<svg width="14px" height="16px" viewBox="0 0 14 16" version="1.1" xmlns="http://www.w3.org/2000/svg" xmlns:xlink="http://www.w3.org/1999/xlink" xmlns:sketch="http://www.bohemiancoding.com/sketch/ns">
    <!-- Generator: sketchtool 3.4 (375) - http://www.bohemiancoding.com/sketch -->
    <title>Fill 1</title>
    <desc>Created with sketchtool.</desc>
    <defs></defs>
    <g id="Style-Guide" stroke="none" stroke-width="1" fill="none" fill-rule="evenodd" sketch:type="MSPage">
        <g id="EI-Style-Guide" sketch:type="MSArtboardGroup" transform="translate(-779.000000, -554.000000)" fill="#E41034">
            <path d="M792.9997,554 L782.998,556.115 L782.998,565.5 C782.577,565.245 782.058,565.089 781.49,565.089 C780.102,565.089 779,566.188 779,567.5 C779,568.969 780.102,570 781.49,570 C782.058,570 782.587,569.86 782.998,569.589 C783.843,569.031 784.003,567.938 784.003,567 L784.003,559 L792.021,557.24 L792.021,563.5 C791.6,563.245 791.081,563.089 790.513,563.089 C789.125,563.089 788,564.021 788,565.5 C788,566.979 789.125,567.989 790.513,567.989 C791.081,567.989 791.603,567.838 792.021,567.578 C793.016,566.958 793.026,565.656 792.9997,565 L792.9997,554 Z M781.49,566.089 C781.849,566.089 782.191,566.181 782.48,566.356 L783.003,566.672 L783.003,567 C783.003,567.934 782.821,568.507 782.447,568.754 C782.206,568.913 781.866,569 781.49,569 C780.612,569 780,568.383 780,567.5 C780,566.722 780.668,566.089 781.49,566.089 L781.49,566.089 Z M790.513,564.089 C790.872,564.089 791.214,564.181 791.503,564.356 L792.026,564.672 L792.026,565 C792.026,565.726 791.961,566.437 791.492,566.729 C791.219,566.9 790.88,566.989 790.513,566.989 C789.622,566.989 789,566.377 789,565.5 C789,564.458 789.815,564.089 790.513,564.089 L790.513,564.089 Z M792.026,555.233 L792.026,556.215 L791.806,556.263 L783.998,557.977 L783.998,556.926 L792.026,555.233 L792.026,555.233 Z" id="Fill-1" sketch:type="MSShapeGroup"></path>
        </g>
    </g>
</svg>