<?xml version="1.0" encoding="UTF-8" standalone="no"?>
<svg width="16px" height="16px" viewBox="0 0 16 16" version="1.1" xmlns="http://www.w3.org/2000/svg" xmlns:xlink="http://www.w3.org/1999/xlink" xmlns:sketch="http://www.bohemiancoding.com/sketch/ns">
    <!-- Generator: sketchtool 3.4 (375) - http://www.bohemiancoding.com/sketch -->
    <title>Profile</title>
    <desc>Created with sketchtool.</desc>
    <defs></defs>
    <g id="Style-Guide" stroke="none" stroke-width="1" fill="none" fill-rule="evenodd" sketch:type="MSPage">
        <g id="EI-Style-Guide" sketch:type="MSArtboardGroup" transform="translate(-606.000000, -664.000000)" fill="#3C3C3C">
            <g id="Icons" sketch:type="MSLayerGroup" transform="translate(560.000000, 660.000000)">
                <g id="Profile" transform="translate(46.000000, 4.000000)" sketch:type="MSShapeGroup">
                    <path d="M8,0 C3.58186667,0 0,3.58186667 0,8 C0,10.3701333 1.03146667,12.5002667 2.6688,13.9648 C4.08426667,15.2309333 5.952,16 8,16 C10.0501333,16 12.0288,15.2330667 13.4442667,13.9648 C15.0805333,12.5002667 16,10.3690667 16,8 C16,3.58186667 12.4181333,0 8,0 M8,1.06666667 C11.8229333,1.06666667 14.9333333,4.17706667 14.9333333,8 C14.9333333,10.064 14.1514667,11.8997333 12.7328,13.1701333 C11.4816,14.2912 9.7568,14.9333333 8,14.9333333 C6.29226667,14.9333333 4.65173333,14.3072 3.38026667,13.1701333 C1.9104,11.8549333 1.06666667,9.9712 1.06666667,8 C1.06666667,4.17706667 4.17706667,1.06666667 8,1.06666667" id="Fill-3"></path>
                    <path d="M2.72,13.3333333 L2.73386667,12.8426667 L2.81173333,12.1226667 C2.82026667,12.0224 2.8576,11.9424 2.93653333,11.8837333 C3.0144,11.8261333 3.09226667,11.7653333 3.17653333,11.7173333 C3.36213333,11.6117333 3.55093333,11.5093333 3.74186667,11.4144 C4.01706667,11.2778667 4.29546667,11.1466667 4.57386667,11.0176 C4.864,10.8832 5.1392,10.7221333 5.40373333,10.5418667 C5.85066667,10.2368 6.27626667,9.90293333 6.69013333,9.55413333 C6.7136,9.53386667 6.73493333,9.51253333 6.75626667,9.49226667 L6.75626667,8.9984 C6.55893333,8.77333333 6.4064,8.52053333 6.2624,8.26133333 C6.176,8.10453333 6.0928,7.9456 6.00533333,7.78986667 C5.9584,7.7056 5.90186667,7.6256 5.8528,7.5424 C5.81866667,7.48586667 5.78453333,7.42826667 5.75893333,7.36746667 C5.6576,7.13066667 5.584,6.8864 5.53173333,6.6336 C5.50613333,6.5088 5.53386667,6.40213333 5.61706667,6.30826667 C5.6576,6.2624 5.70453333,6.2208 5.7504,6.17386667 L5.7504,6.0576 C5.7504,5.7312 5.74506667,5.40373333 5.75146667,5.07733333 C5.7664,4.3424 6.1248,3.51466667 7.1232,3.19253333 C7.34933333,3.12 7.58293333,3.07626667 7.8208,3.06773333 C8.1216,3.05813333 8.42026667,3.06773333 8.7136,3.14453333 C8.9376,3.20213333 9.15093333,3.28426667 9.3472,3.40586667 C9.7728,3.66826667 10.0384,4.048 10.1717333,4.5248 C10.2282667,4.72426667 10.2581333,4.92693333 10.256,5.13493333 C10.2517333,5.43466667 10.24,6.16533333 10.24,6.16533333 C10.24,6.16533333 10.3669333,6.29973333 10.4032,6.32746667 C10.4981333,6.4 10.4650667,6.67306667 10.4554667,6.71466667 C10.4053333,6.93973333 10.3392,7.1584 10.2442667,7.36853333 C10.2133333,7.43893333 10.1696,7.50506667 10.1301333,7.5712 C10.0853333,7.64906667 10.0362667,7.72373333 9.99253333,7.8016 C9.89653333,7.97546667 9.8048,8.15146667 9.70773333,8.32426667 C9.5808,8.54826667 9.24373333,8.97066667 9.24373333,8.97066667 L9.24373333,9.46133333 C9.26613333,9.4816 10.1632,10.2442667 10.6208,10.5546667 C10.8789333,10.7306667 11.1477333,10.8853333 11.4314667,11.0176 C11.7557333,11.1690667 12.0778667,11.3237333 12.3989333,11.4826667 C12.5589333,11.5626667 12.7146667,11.6512 12.8682667,11.7418667 C12.9418667,11.7845333 13.0101333,11.8389333 13.0773333,11.8912 C13.1466667,11.9466667 13.1829333,12.0181333 13.1914667,12.1109333 C13.2789333,13.1584 13.2970667,13.6 13.2970667,13.6 C13.2970667,13.6 10.8754864,15.6357428 8.31347656,15.6357422 C5.75146672,15.6357415 2.72,13.3333333 2.72,13.3333333 Z" id="Stroke-1"></path>
                </g>
            </g>
        </g>
    </g>
</svg>