<?xml version="1.0" encoding="UTF-8" standalone="no"?>
<svg width="23px" height="24px" viewBox="0 0 23 24" version="1.1" xmlns="http://www.w3.org/2000/svg" xmlns:xlink="http://www.w3.org/1999/xlink" xmlns:sketch="http://www.bohemiancoding.com/sketch/ns">
    <!-- Generator: sketchtool 3.4.4 (395) - http://www.bohemiancoding.com/sketch -->
    <title>Artists Icon</title>
    <desc>Created with sketchtool.</desc>
    <defs></defs>
    <g id="Landing-Page" stroke="none" stroke-width="1" fill="none" fill-rule="evenodd" sketch:type="MSPage">
        <g id="EI-Landing-Page-(mobile)" sketch:type="MSArtboardGroup" transform="translate(-175.000000, -750.000000)" fill="#E41034">
            <g id="•-Benefits" sketch:type="MSLayerGroup" transform="translate(0.000000, 670.000000)">
                <g id="Group" transform="translate(50.000000, 80.000000)" sketch:type="MSShapeGroup">
                    <g id="Imported-Layers-Copy-3-+-Artists-+-Claim-then-manage-yo">
                        <path d="M147.155689,4.74476344 C146.633689,1.99632121 144.225689,0 141.431689,0 C141.067689,0 140.699689,0.0340054715 140.337689,0.104016736 C137.575689,0.628101062 135.611689,3.020486 135.611689,5.82293692 L125.981689,14.6743611 C125.315689,15.2864596 125.229689,16.3646331 125.789689,17.0747473 L126.229689,17.6308368 C125.905689,17.8468716 125.447689,18.2429353 125.191689,18.8850386 C124.881689,19.6591632 124.947689,20.5613083 125.389689,21.5654699 C125.853689,22.6196395 126.843689,23.4317702 128.105689,23.7938285 C128.599689,23.933851 129.121689,24.0038622 129.657689,24.0038622 C131.171689,24.0038622 132.815689,23.4517734 134.353689,22.4016044 C136.503689,20.9313679 138.525689,20.4632926 139.903689,21.1193981 C140.729689,21.5114612 141.231689,22.2975877 141.317689,23.3317541 C141.333689,23.5257853 141.501689,23.6738091 141.699689,23.6538059 C141.893689,23.6378033 142.037689,23.467776 142.021689,23.2737448 C141.913689,21.9775362 141.269689,20.9873769 140.207689,20.4812955 C138.595689,19.7151722 136.317689,20.2012504 133.955689,21.8175105 C132.045689,23.1237206 129.983689,23.5957966 128.299689,23.113719 C127.241689,22.8116704 126.415689,22.1435629 126.035689,21.2814242 C125.675689,20.4612922 125.609689,19.745177 125.843689,19.1550821 C126.045689,18.6409994 126.433689,18.3369504 126.667689,18.1889266 L126.953689,18.5509849 C127.283689,18.9710525 127.811689,19.2210927 128.363689,19.2210927 C128.715689,19.2210927 129.051689,19.1210766 129.335689,18.931046 L140.401689,11.5738622 C141.103689,11.6998825 141.821689,11.6958819 142.515689,11.5638606 C145.673689,10.9637641 147.755689,7.90527197 147.155689,4.74476344 L147.155689,4.74476344 Z M128.945689,18.3429514 C128.509689,18.6329981 127.829689,18.52098 127.507689,18.1149147 L126.343689,16.6386772 C126.013689,16.2166093 126.065689,15.5565031 126.459689,15.1944448 L136.237689,6.20699871 C137.373689,7.09714194 138.883689,8.61138558 140.039689,10.9657644 L128.945689,18.3429514 L128.945689,18.3429514 Z M142.383689,10.8717493 C141.855689,10.9717654 141.315689,10.981767 140.779689,10.9117557 C140.773689,10.8777502 140.769689,10.8417444 140.753689,10.807739 C139.465689,8.10730447 137.715689,6.42903444 136.475689,5.49688445 C136.431689,5.46287898 136.383689,5.44487609 136.333689,5.43487448 C136.447689,3.92463148 137.207689,2.58241551 138.371689,1.71627615 C138.391689,1.73627937 138.409689,1.75628259 138.435689,1.77028484 C139.787689,2.50040232 143.099689,4.74076279 144.697689,9.77757322 C144.051689,10.3156598 143.265689,10.7037222 142.383689,10.8717493 L142.383689,10.8717493 Z M145.255689,9.23148536 C143.639689,4.4847216 140.559689,2.18235114 139.039689,1.30020921 C139.479689,1.06817187 139.957689,0.894143869 140.469689,0.796128098 C140.787689,0.736118442 141.111689,0.706113614 141.431689,0.706113614 C143.887689,0.706113614 146.003689,2.46039588 146.463689,4.87678468 C146.769689,6.49704538 146.271689,8.08330061 145.255689,9.23148536 L145.255689,9.23148536 Z" id="Artists-Icon"></path>
                    </g>
                </g>
            </g>
        </g>
    </g>
</svg>