<?xml version="1.0" encoding="UTF-8" standalone="no"?>
<svg width="24px" height="24px" viewBox="0 0 24 24" version="1.1" xmlns="http://www.w3.org/2000/svg" xmlns:xlink="http://www.w3.org/1999/xlink" xmlns:sketch="http://www.bohemiancoding.com/sketch/ns">
    <!-- Generator: sketchtool 3.4.4 (395) - http://www.bohemiancoding.com/sketch -->
    <title>Brands Icon</title>
    <desc>Created with sketchtool.</desc>
    <defs></defs>
    <g id="Landing-Page" stroke="none" stroke-width="1" fill="none" fill-rule="evenodd" sketch:type="MSPage">
        <g id="EI-Landing-Page-(mobile)" sketch:type="MSArtboardGroup" transform="translate(-175.000000, -1124.000000)" fill="#E41034">
            <g id="•-Benefits" sketch:type="MSLayerGroup" transform="translate(0.000000, 670.000000)">
                <g id="Group" transform="translate(50.000000, 80.000000)" sketch:type="MSShapeGroup">
                    <g id="Page-1-+-Brands" transform="translate(19.000000, 373.000000)">
                        <g id="Brands-Icon" transform="translate(106.000000, 0.597322)">
                            <path d="M7.27515,8.53052257 C7.14165,8.53052257 7.00665,8.47951436 6.90315,8.37599771 L0.15315,1.62491145 C-0.05085,1.42087862 -0.05085,1.08932527 0.15315,0.883792203 C0.35865,0.679759374 0.69165,0.679759374 0.89715,0.883792203 L7.64715,7.63487846 C7.85115,7.84041153 7.85115,8.17196488 7.64715,8.37599771 C7.54365,8.47951436 7.40865,8.53052257 7.27515,8.53052257" id="Fill-1"></path>
                            <g id="Group-5" transform="translate(1.200000, 2.400386)">
                                <path d="M10.86015,0.105767018 L10.86015,0.105767018 L5.11515,0.105767018 C4.63665,0.105767018 4.18515,0.293297192 3.84615,0.632351746 L1.09965,3.37779349 C0.76065,3.71684804 0.57465,4.1684207 0.57465,4.64849795 L0.57465,10.3929222 C0.57465,10.8729995 0.76065,11.3245721 1.09965,11.6636267 L10.51215,21.0776414 C10.85115,21.416696 11.30265,21.6042261 11.78265,21.6042261 C12.26115,21.6042261 12.71265,21.416696 13.05165,21.0776414 L21.54615,12.5877754 C21.88515,12.2487208 22.07265,11.7971482 22.07265,11.3185712 C22.07265,10.8384939 21.88515,10.3869213 21.54615,10.0478667 L12.12915,0.630851505 C11.79015,0.29179695 11.34015,0.105767018 10.86015,0.105767018 M10.86015,1.15593599 C11.05815,1.15593599 11.24715,1.23394854 11.38665,1.37347099 L20.80365,10.7904862 C21.09465,11.081533 21.09465,11.5541091 20.80365,11.8451559 L12.30915,20.3350219 C12.16365,20.4805453 11.97315,20.5540572 11.78265,20.5540572 C11.59065,20.5540572 11.40015,20.4805453 11.25465,20.3350219 L1.84215,10.9210072 C1.70265,10.7814848 1.62465,10.5909541 1.62465,10.3929222 L1.62465,4.64849795 C1.62465,4.45046608 1.70265,4.25993543 1.84215,4.12041298 L4.58865,1.37497123 C4.72815,1.23544879 4.91865,1.15593599 5.11665,1.15593599 L10.86015,1.15593599" id="Fill-3"></path>
                            </g>
                            <path d="M7.27515,6.28016048 C6.32415,6.28016048 5.55015,7.05578528 5.55015,8.00543808 C5.55015,8.95659112 6.32415,9.73221592 7.27515,9.73221592 C8.22615,9.73221592 9.00015,8.95659112 9.00015,8.00543808 C9.00015,7.05578528 8.22615,6.28016048 7.27515,6.28016048 M7.27515,10.7808847 C5.74515,10.7808847 4.50015,9.53718454 4.50015,8.00543808 C4.50015,6.47519187 5.74515,5.23149175 7.27515,5.23149175 C8.80515,5.23149175 10.05015,6.47519187 10.05015,8.00543808 C10.05015,9.53718454 8.80515,10.7808847 7.27515,10.7808847" id="Fill-6"></path>
                        </g>
                    </g>
                </g>
            </g>
        </g>
    </g>
</svg>