<?xml version="1.0" encoding="UTF-8" standalone="no"?>
<svg width="30px" height="30px" viewBox="0 0 30 30" version="1.1" xmlns="http://www.w3.org/2000/svg" xmlns:xlink="http://www.w3.org/1999/xlink" xmlns:sketch="http://www.bohemiancoding.com/sketch/ns">
    <!-- Generator: sketchtool 3.4.4 (395) - http://www.bohemiancoding.com/sketch -->
    <title>Age</title>
    <desc>Created with sketchtool.</desc>
    <defs></defs>
    <g id="Landing-Page" stroke="none" stroke-width="1" fill="none" fill-rule="evenodd" sketch:type="MSPage">
        <g id="EI-Landing-Page-(mobile)" sketch:type="MSArtboardGroup" transform="translate(-266.000000, -2562.000000)" fill="#4F4F4F">
            <g id="•-Audience" sketch:type="MSLayerGroup" transform="translate(0.000000, 2010.000000)">
                <path d="M281.214389,555.245588 C281.262205,555.245588 281.31096,555.253208 281.356901,555.267493 C281.479724,555.307493 281.580045,555.397018 281.636299,555.514161 C282.167906,556.628452 282.331982,557.871315 282.115402,559.023701 C282.350734,558.930368 282.530749,558.809415 282.60388,558.756081 C283.053918,558.428461 283.303314,557.907506 283.34738,557.208455 C283.423324,555.990354 282.783895,554.5913 281.535978,553.225579 C281.470348,553.326532 281.399092,553.437961 281.326898,553.548438 L280.922802,554.168441 C280.528082,554.769396 280.098671,555.380827 279.746141,555.842734 C279.339232,556.37607 278.971702,556.970358 279.032644,557.688457 C279.074835,558.176078 279.255788,558.548461 279.592378,558.824653 L279.592378,557.714171 C279.592378,556.514166 280.427761,555.616066 280.98937,555.304636 C281.058751,555.265589 281.13657,555.245588 281.214389,555.245588 L281.214389,555.245588 Z M276.614629,572.079953 C276.818084,572.079953 277.027164,572.175192 277.273747,572.367574 C277.293436,572.382812 277.357192,572.443765 277.375006,572.460908 C277.958179,572.916148 278.494474,573.205673 279.050458,573.364721 C279.938345,573.619961 280.843108,573.694247 281.821002,573.589484 C282.597317,573.506627 283.300501,573.291388 283.969932,572.933291 C284.143384,572.840909 284.30746,572.70948 284.480912,572.570432 C284.619674,572.459955 284.759373,572.349478 284.90751,572.25043 C285.245038,572.024715 285.590067,572.037096 285.903218,572.282811 C286.012915,572.367574 286.116986,572.45805 286.221058,572.548527 C286.373883,572.681861 286.525771,572.815195 286.698285,572.924719 C287.624612,573.513293 288.685014,573.733294 289.941369,573.590437 C290.718621,573.502817 291.3693,573.270435 291.929972,572.879957 C292.104362,572.759004 292.336881,572.619003 292.605966,572.599956 C292.621905,572.597099 292.64722,572.503765 292.664096,572.442812 C292.716601,572.25043 292.714725,572.037096 292.657533,571.727571 C292.4072,570.390422 291.12178,569.517084 289.404136,569.578989 C288.326859,569.598037 287.249581,569.594227 286.170428,569.590418 C285.540376,569.589465 284.910323,569.585656 284.281208,569.588513 L284.28027,569.588513 C283.995246,569.618989 283.681158,569.55137 283.398947,569.468512 C283.147676,569.55137 282.877653,569.584704 282.548563,569.588513 C281.94945,569.583751 281.439408,569.564703 280.916239,569.544703 C280.529957,569.530418 280.137111,569.515179 279.693637,569.506608 C279.351421,569.499941 278.887319,569.519941 278.463534,569.539941 C278.247891,569.550418 278.042561,569.558989 277.865359,569.564703 C276.585565,569.603751 275.286081,569.59518 274.032539,569.59137 L272.34771,569.586608 C272.193947,569.585656 271.831105,569.583751 271.722346,569.607561 C270.498806,569.878038 269.918445,570.168516 269.488096,571.264711 C269.26214,571.839 269.235888,572.227573 269.399964,572.584718 C269.724366,572.675194 269.998139,572.842814 270.244722,572.992339 L270.356294,573.059958 C270.826021,573.339959 271.378254,573.514246 272.043935,573.591389 C272.565228,573.651389 273.09121,573.639961 273.650007,573.557103 C274.501328,573.430436 275.24764,573.059958 275.931135,572.424717 C276.178656,572.19424 276.393361,572.079953 276.614629,572.079953 L276.614629,572.079953 Z M269.277141,579.142844 L292.73629,579.142844 L292.735352,577.772361 C292.734415,576.543784 292.732539,575.35235 292.74004,574.080915 C292.741915,573.876152 292.721288,573.702818 292.677222,573.549484 C292.665971,573.555198 292.642532,573.538055 292.458766,573.665675 C291.769646,574.14663 290.979268,574.432345 290.043565,574.537108 C288.570629,574.702823 287.314274,574.439012 286.201368,573.732342 C285.988538,573.598056 285.800085,573.43615 285.611632,573.273292 C285.535688,573.205673 285.459744,573.139958 285.380987,573.077101 C285.26004,573.159958 285.160656,573.239959 285.061273,573.319959 C284.861569,573.479008 284.656239,573.642818 284.406843,573.776152 C283.629591,574.192344 282.815773,574.439964 281.91851,574.536155 C280.820606,574.654251 279.799583,574.569489 278.795437,574.281868 C278.121318,574.088534 277.484702,573.748533 276.793707,573.209482 C276.774018,573.195197 276.7112,573.134244 276.693386,573.117101 C276.668071,573.096149 276.647445,573.08091 276.629631,573.068529 C276.611817,573.082815 276.590252,573.102815 276.564,573.127577 C275.737994,573.8952 274.82948,574.343774 273.785956,574.499965 C273.145589,574.594251 272.541789,574.606632 271.937051,574.53806 C271.138234,574.444726 270.46599,574.23044 269.880942,573.879962 L269.762807,573.808533 C269.609981,573.716152 269.469345,573.630437 269.329645,573.567579 C269.28933,573.717104 269.270578,573.883771 269.271516,574.080915 C269.279954,575.361874 269.279016,576.561879 269.278079,577.79998 L269.277141,579.142844 Z M267.214469,580.095229 C267.046642,580.095229 266.964135,580.137134 266.943509,580.159039 C266.990387,580.93809 267.839833,581.047615 268.341438,581.047615 L293.656054,581.047615 C294.627385,581.047615 295.062422,580.688565 295.062422,580.333325 C295.062422,580.159991 295.062422,580.095229 294.593632,580.095229 L267.214469,580.095229 Z M293.656054,582 L268.341438,582 C266.707239,582 266.062185,581.106662 266.003117,580.270468 C265.981553,579.982848 266.072498,579.71237 266.256264,579.511417 C266.410026,579.342845 266.701613,579.142844 267.214469,579.142844 L268.339563,579.142844 L268.3405,577.799028 C268.341438,576.562832 268.342375,575.365683 268.333937,574.086629 C268.331125,573.659961 268.399568,573.301864 268.546768,572.978053 C268.18955,572.228525 268.393942,571.481855 268.617086,570.912329 C269.191821,569.446608 270.081583,568.996129 271.523579,568.678033 C271.71672,568.635175 272.009244,568.631366 272.351461,568.634223 L274.037227,568.638985 C275.283268,568.642794 276.574314,568.651366 277.838169,568.612318 L278.421343,568.588508 C278.498224,568.585651 278.576981,568.581842 278.6548,568.578032 L278.6548,564.857062 C278.6548,564.739919 278.421343,564.547537 277.989119,564.42087 C277.649716,564.320869 276.373672,563.788486 276.311792,562.989434 C276.243348,562.107525 276.975597,561.376093 278.222576,561.079902 C278.404467,561.037044 278.585419,560.988473 278.765434,560.939901 C279.117026,560.845615 279.469556,560.752281 279.829586,560.693233 C280.305876,560.613233 280.98562,559.927515 281.002496,559.59799 C281.003434,559.590371 281.003434,559.584656 281.004371,559.577037 L281.004371,559.576085 C281.008122,559.531323 281.018435,559.488466 281.033436,559.448465 C281.356901,558.522747 281.348463,557.475123 281.02031,556.494166 C280.757788,556.796072 280.529957,557.231312 280.529957,557.714171 L280.529957,559.618942 C280.529957,559.774181 280.454951,559.919896 280.330253,560.00942 C280.20368,560.098945 280.042416,560.118945 279.899904,560.066564 C278.815126,559.662752 278.192574,558.869415 278.098816,557.770362 C278.009746,556.723691 278.506663,555.914163 279.004517,555.260827 C279.344858,554.814158 279.760205,554.223679 280.143674,553.638914 L280.54402,553.024626 C281.19095,552.026526 281.19095,552.026526 281.423469,552.002716 C281.565981,551.987478 281.700055,552.037002 281.7985,552.135098 C283.50208,553.825582 284.384341,555.648447 284.283083,557.268455 C284.221203,558.253222 283.830233,559.03513 283.150488,559.529418 C282.946096,559.678943 282.455743,559.990373 281.839754,560.074183 C281.545354,560.809424 280.666843,561.517999 279.981473,561.632285 C279.649571,561.687524 279.327044,561.774191 279.005454,561.860858 C278.815126,561.911334 278.625735,561.962763 278.435407,562.008477 C277.819418,562.15324 277.213742,562.490384 277.247495,562.914196 C277.306562,563.037054 277.839107,563.385627 278.247891,563.505627 C279.102025,563.755152 279.592378,564.247536 279.592378,564.85611 L279.592378,568.55327 C279.633632,568.55327 279.673948,568.55327 279.712388,568.554222 C280.161488,568.562794 280.559959,568.578032 280.950929,568.59327 C281.46566,568.612318 281.966327,568.631366 282.557001,568.636128 C282.827024,568.625651 283.022978,568.604699 283.199242,568.526603 C283.245184,568.506603 283.293938,568.49327 283.342692,568.488508 L283.342692,564.38087 C283.342692,563.002768 283.753351,562.491337 284.186512,561.951334 L284.378716,561.708476 C284.434033,561.635142 284.433096,561.427522 284.356214,561.307522 C284.242767,561.129426 283.483329,560.904663 282.660135,561.447522 C282.443554,561.588475 282.151967,561.527523 282.011331,561.305617 C281.870694,561.085616 281.933512,560.790376 282.15103,560.647519 C283.317377,559.880848 284.691867,560.088468 285.141905,560.786567 C285.433492,561.24276 285.425053,561.889429 285.120341,562.290383 L284.913136,562.553242 C284.532479,563.02753 284.28027,563.341817 284.28027,564.38087 L284.28027,568.583746 C284.28027,568.600889 284.279333,568.618985 284.277458,568.636128 C284.909385,568.632318 285.541313,568.63708 286.174179,568.638032 C287.246768,568.641842 288.316545,568.645651 289.388197,568.626604 C291.534314,568.558984 293.244457,569.761847 293.578235,571.550427 C293.635427,571.858048 293.685119,572.265669 293.566984,572.698051 C293.54542,572.776147 293.517292,572.880909 293.469476,572.988529 C293.613863,573.309483 293.680431,573.66377 293.677618,574.086629 C293.670118,575.356159 293.671993,576.544736 293.67293,577.771409 L293.673868,579.142844 L294.593632,579.142844 C295.526523,579.142844 296,579.543798 296,580.333325 C296,580.952376 295.506834,582 293.656054,582 L293.656054,582 Z" id="Age" sketch:type="MSShapeGroup"></path>
            </g>
        </g>
    </g>
</svg>