<?xml version="1.0" encoding="UTF-8" standalone="no"?>
<svg width="55px" height="31px" viewBox="0 0 55 31" version="1.1" xmlns="http://www.w3.org/2000/svg" xmlns:xlink="http://www.w3.org/1999/xlink" xmlns:sketch="http://www.bohemiancoding.com/sketch/ns">
    <!-- Generator: sketchtool 3.4.4 (395) - http://www.bohemiancoding.com/sketch -->
    <title>Imported Layers</title>
    <desc>Created with sketchtool.</desc>
    <defs></defs>
    <g id="Landing-Page" stroke="none" stroke-width="1" fill="none" fill-rule="evenodd" sketch:type="MSPage">
        <g id="EI-Landing-Page-(mobile)" sketch:type="MSArtboardGroup" transform="translate(-255.000000, -2380.000000)" stroke="#4F4F4F" stroke-width="0.9" stroke-linecap="round" stroke-linejoin="round">
            <g id="•-Audience" sketch:type="MSLayerGroup" transform="translate(0.000000, 2010.000000)">
                <path d="M302.839498,384.160832 C302.839498,382.170957 302.806551,380.18025 302.850667,378.191347 C302.881799,376.793173 301.871327,375.808024 300.466048,375.818714 C296.092038,375.852033 291.71733,375.852033 287.34332,375.818714 C285.938041,375.808024 284.951721,376.794006 284.957724,378.191069 C284.985227,384.669789 284.985227,391.148786 284.957724,397.627505 C284.951861,399.024569 285.937901,400.015133 287.34332,399.999722 C290.877039,399.988199 298.642509,400 298.642509,400 M300.885007,384.160832 C300.885007,382.633683 300.870488,381.106257 300.892965,379.579525 C300.900643,379.058212 300.710639,378.875787 300.186975,378.877592 C295.998781,378.891336 291.810587,378.891336 287.622393,378.877592 C287.098729,378.875787 286.915426,379.058629 286.916682,379.579386 C286.929247,384.76239 286.923244,389.945532 286.925757,395.128535 C286.926036,395.770493 286.99193,395.821722 287.762,395.821999 C291.205672,395.823526 294.649205,395.822693 298.092878,395.822693 M283.224618,389.436436 L255,389.436436 M308.892276,386.387553 C308.73829,385.824174 308.248411,385.553314 307.655921,385.551648 C305.375729,385.5454 303.095257,385.533461 300.815344,385.55734 C299.980358,385.566225 299.536967,386.037559 299.492852,386.868189 C299.458509,387.515144 299.508209,388.163072 299.501089,388.811832 C299.471911,391.449357 299.46521,394.087714 299.506254,396.724822 C299.516026,397.351369 299.469817,397.974723 299.48978,398.599327 C299.51826,399.494653 299.984685,399.978065 300.885007,399.98334 C303.118711,399.99639 305.352414,399.99639 307.586118,399.98334 C308.48644,399.978065 308.937509,399.49382 308.986929,398.599605 C309.018899,398.019705 308.982183,391.356895 308.982043,388.603446 C308.982043,388.428379 309.038165,386.920806 308.892276,386.387553 L308.892276,386.387553 Z M308.772773,397.488674 L299.698353,397.488674 L308.772773,397.488674 Z M308.772773,388.048119 L299.698353,388.048119 L308.772773,388.048119 Z M283.500821,393.478261 L258.006581,393.478261 L256.591873,393.478261 M262.632835,399.987644 L268.147291,399.987644 L274.569188,399.987644 C277.175222,399.987644 279.781117,399.990421 282.387151,399.982785 L262.632835,399.987644 Z M269.054733,393.809634 L269.054733,399.779396 L269.054733,393.809634 Z M275.47663,393.809634 L275.47663,399.779396 L275.47663,393.809634 Z M296.696813,370 L296.696813,374.164951 L296.696813,370 Z M292.508619,370 L292.508619,374.164951 L292.508619,370 Z M306.259856,386.798634 L302.490482,386.798634 L306.259856,386.798634 Z M295.091339,397.913776 C295.091339,398.369144 294.720265,398.738159 294.262356,398.738159 C293.804586,398.738159 293.433512,398.369144 293.433512,397.913776 C293.433512,397.458547 293.804586,397.089533 294.262356,397.089533 C294.720265,397.089533 295.091339,397.458547 295.091339,397.913776 L295.091339,397.913776 Z" id="Imported-Layers" sketch:type="MSShapeGroup"></path>
            </g>
        </g>
    </g>
</svg>