<?xml version="1.0" encoding="UTF-8" standalone="no"?>
<svg width="36px" height="30px" viewBox="0 0 36 30" version="1.1" xmlns="http://www.w3.org/2000/svg" xmlns:xlink="http://www.w3.org/1999/xlink" xmlns:sketch="http://www.bohemiancoding.com/sketch/ns">
    <!-- Generator: sketchtool 3.4.4 (395) - http://www.bohemiancoding.com/sketch -->
    <title>Location</title>
    <desc>Created with sketchtool.</desc>
    <defs></defs>
    <g id="Landing-Page" stroke="none" stroke-width="1" fill="none" fill-rule="evenodd" sketch:type="MSPage">
        <g id="EI-Landing-Page-(mobile)" sketch:type="MSArtboardGroup" transform="translate(-261.000000, -2472.000000)" fill="#4F4F4F">
            <g id="•-Audience" sketch:type="MSLayerGroup" transform="translate(0.000000, 2010.000000)">
                <g id="where-they-are-liste-+-Location" transform="translate(218.000000, 462.000000)" sketch:type="MSShapeGroup">
                    <path d="M43.8372093,10.83425 L51.372093,8.4113935 L51.372093,26.4750557 L43.8372093,28.8979121 L43.8372093,10.83425 Z M70.237014,3.61667974 C70.9327349,3.61667974 71.4986884,4.15035552 71.4986884,4.80639779 C71.4986884,5.46244007 70.9327349,5.99611585 70.237014,5.99611585 C69.541293,5.99611585 68.9753395,5.46244007 68.9753395,4.80639779 C68.9753395,4.15035552 69.541293,3.61667974 70.237014,3.61667974 Z M70.237014,6.78557707 C71.3965488,6.78557707 72.3358977,5.89901212 72.3358977,4.80639779 C72.3358977,3.71299401 71.3965488,2.82721852 70.237014,2.82721852 C69.0783163,2.82721852 68.1381302,3.71299401 68.1381302,4.80639779 C68.1381302,5.89901212 69.0783163,6.78557707 70.237014,6.78557707 M52.2093023,8.37823613 L60.5797209,10.6968837 L60.6023256,28.789756 L52.2093023,26.4640032 L52.2093023,8.37823613 Z M77.6286512,9.82768693 C77.627814,9.82768693 77.6261395,9.82689747 77.6253023,9.82610801 L76.9848372,9.62005863 C76.7663256,9.54979658 76.5285581,9.65953169 76.4532093,9.86637053 C76.3786977,10.0724199 76.3368372,10.2966269 76.5553488,10.3676784 L76.4883721,10.3968885 L76.4883721,10.3976779 L78.1627907,10.8334605 L78.1627907,28.8947543 L70.627907,26.467161 L70.627907,16.6360005 C70.627907,16.4181092 70.4403721,16.2412699 70.2093023,16.2412699 C69.9782326,16.2412699 69.7906977,16.4181092 69.7906977,16.6360005 L69.7906977,26.4703189 L61.4186047,28.7755456 L61.4186047,10.7237254 L63.4957209,10.1497871 C63.7167442,10.0882091 63.8473488,9.86873891 63.7820465,9.65953169 C63.7167442,9.45032447 63.4856744,9.33111582 63.263814,9.39190434 L62.9565581,9.47795561 L62.9465116,9.44716662 L60.9983256,9.98557918 L51.8258605,7.44114567 L43,10.2682063 L43,30 L51.8266977,27.1729394 L60.9983256,29.7173729 L70.256186,27.1729394 L79,30 L79,10.2682063 L77.6286512,9.82768693 Z M70.237014,0.789461219 C72.7511535,0.789461219 74.7964558,2.69995737 74.7964558,5.0486045 C74.7964558,5.86806524 74.5469674,6.66305269 74.0739442,7.34988395 L70.3977581,12.7000626 C70.3625953,12.7505881 70.3023163,12.7813771 70.237014,12.7813771 C70.1708744,12.7813771 70.1114326,12.7513776 70.0762698,12.7000626 L66.4042698,7.35619964 L66.3900372,7.33488419 L66.3892,7.33488419 C65.9237116,6.65200023 65.6775721,5.86174955 65.6775721,5.0486045 C65.6775721,2.69995737 67.7228744,0.789461219 70.237014,0.789461219 Z M65.7018512,7.78566654 L69.3738512,13.1295295 C69.5622233,13.404262 69.8870605,13.5708384 70.237014,13.5708384 C70.5861302,13.5708384 70.9109674,13.404262 71.1001767,13.1295295 L74.7763628,7.77935085 C75.337293,6.96462687 75.6336651,6.02043126 75.6336651,5.0486045 C75.6336651,2.26496424 73.2124558,0 70.237014,0 C67.2615721,0 64.8403628,2.26496424 64.8403628,5.0486045 C64.8403628,6.0196418 65.1367349,6.96383741 65.6968279,7.77777193 C65.6976651,7.78014031 65.6993395,7.7825087 65.7018512,7.78566654" id="Location"></path>
                </g>
            </g>
        </g>
    </g>
</svg>